# xmcd
#
# Track frame offsets:
#	150
#	30531
#	58956
#	89770
#	118517
#	146137
#	175458
#	204430
#
# Disc length: 2918 seconds
#
# Revision: 0
# Processed by: cddbd v1.5.2PL0 Copyright (c) Steve Scherf et al.
# Submitted via: audiograbber 1.83.01
#
DISCID=780b6408
DTITLE=Grateful Dead - 93-09-30 Boston Garden, Boston MA
DYEAR=1900
DGENRE=
TTITLE0=Here Comes Sunshine
TTITLE1=Spoonful
TTITLE2=Candyman
TTITLE3=El Paso
TTITLE4=Broken Arrow
TTITLE5=Stagger Lee
TTITLE6=Easy Answers
TTITLE7=Don't Ease Me In
EXTD=
EXTT0=
EXTT1=
EXTT2=
EXTT3=
EXTT4=
EXTT5=
EXTT6=
EXTT7=
PLAYORDER=
